<mxfile host="app.diagrams.net" modified="2023-07-19T14:59:14.013Z" agent="Mozilla/5.0 (Windows NT 10.0; Win64; x64) AppleWebKit/537.36 (KHTML, like Gecko) Chrome/113.0.0.0 Safari/537.36 OPR/99.0.0.0" etag="8WPfH_OdPY9zswZtYwc3" version="21.6.3">
  <diagram name="Pagina-1" id="5W6a3aC7b1L4yluo0MPW">
    <mxGraphModel dx="498" dy="446" grid="1" gridSize="10" guides="1" tooltips="1" connect="1" arrows="1" fold="1" page="1" pageScale="1" pageWidth="827" pageHeight="1169" math="0" shadow="0">
      <root>
        <mxCell id="0" />
        <mxCell id="1" parent="0" />
        <mxCell id="Le2Ed6DJ84hzCDSRAri3-1" value="API" style="shape=cylinder3;whiteSpace=wrap;html=1;boundedLbl=1;backgroundOutline=1;size=15;fontSize=18;fontStyle=1;fillColor=#ffe6cc;strokeColor=#d79b00;verticalAlign=top;" vertex="1" parent="1">
          <mxGeometry x="420" y="125" width="90" height="150" as="geometry" />
        </mxCell>
        <mxCell id="Le2Ed6DJ84hzCDSRAri3-3" value="&lt;font style=&quot;font-size: 19px;&quot;&gt;APP&lt;/font&gt;&lt;div style=&quot;text-align: justify;&quot;&gt;&lt;/div&gt;" style="rounded=1;whiteSpace=wrap;html=1;fillColor=#d5e8d4;strokeColor=#82b366;verticalAlign=top;fontStyle=1" vertex="1" parent="1">
          <mxGeometry x="130" y="20" width="230" height="410" as="geometry" />
        </mxCell>
        <mxCell id="Le2Ed6DJ84hzCDSRAri3-4" value="&lt;font style=&quot;font-size: 14px;&quot;&gt;HEADER&lt;/font&gt;" style="rounded=1;whiteSpace=wrap;html=1;align=left;fillColor=#dae8fc;strokeColor=#6c8ebf;fontStyle=1" vertex="1" parent="1">
          <mxGeometry x="150" y="70" width="190" height="60" as="geometry" />
        </mxCell>
        <mxCell id="Le2Ed6DJ84hzCDSRAri3-5" value="input" style="rounded=1;whiteSpace=wrap;html=1;" vertex="1" parent="1">
          <mxGeometry x="280" y="85" width="40" height="30" as="geometry" />
        </mxCell>
        <mxCell id="Le2Ed6DJ84hzCDSRAri3-6" value="&lt;h1 style=&quot;font-size: 17px;&quot;&gt;MAIN&lt;/h1&gt;" style="rounded=1;whiteSpace=wrap;html=1;align=center;fillColor=#dae8fc;strokeColor=#6c8ebf;verticalAlign=top;" vertex="1" parent="1">
          <mxGeometry x="150" y="150" width="190" height="250" as="geometry" />
        </mxCell>
        <mxCell id="Le2Ed6DJ84hzCDSRAri3-7" value="FILM" style="rounded=1;whiteSpace=wrap;html=1;fillColor=#e1d5e7;strokeColor=#9673a6;" vertex="1" parent="1">
          <mxGeometry x="170" y="220" width="60" height="30" as="geometry" />
        </mxCell>
        <mxCell id="Le2Ed6DJ84hzCDSRAri3-8" value="FILM" style="rounded=1;whiteSpace=wrap;html=1;fillColor=#e1d5e7;strokeColor=#9673a6;" vertex="1" parent="1">
          <mxGeometry x="260" y="220" width="60" height="30" as="geometry" />
        </mxCell>
        <mxCell id="Le2Ed6DJ84hzCDSRAri3-12" value="FILM" style="rounded=1;whiteSpace=wrap;html=1;fillColor=#e1d5e7;strokeColor=#9673a6;" vertex="1" parent="1">
          <mxGeometry x="260" y="275" width="60" height="30" as="geometry" />
        </mxCell>
        <mxCell id="Le2Ed6DJ84hzCDSRAri3-13" value="FILM" style="rounded=1;whiteSpace=wrap;html=1;fillColor=#e1d5e7;strokeColor=#9673a6;" vertex="1" parent="1">
          <mxGeometry x="170" y="275" width="60" height="30" as="geometry" />
        </mxCell>
        <mxCell id="Le2Ed6DJ84hzCDSRAri3-14" value="FILM" style="rounded=1;whiteSpace=wrap;html=1;fillColor=#e1d5e7;strokeColor=#9673a6;" vertex="1" parent="1">
          <mxGeometry x="170" y="330" width="60" height="30" as="geometry" />
        </mxCell>
        <mxCell id="Le2Ed6DJ84hzCDSRAri3-16" value="&lt;b&gt;&lt;font style=&quot;font-size: 14px;&quot;&gt;STORE&lt;br&gt;&lt;br&gt;-lista film&lt;br&gt;-variabile input&lt;br&gt;&lt;/font&gt;&lt;/b&gt;" style="shape=cylinder3;whiteSpace=wrap;html=1;boundedLbl=1;backgroundOutline=1;size=15;fillColor=#ffe6cc;strokeColor=#d79b00;horizontal=1;verticalAlign=top;" vertex="1" parent="1">
          <mxGeometry x="10" y="110" width="80" height="180" as="geometry" />
        </mxCell>
        <mxCell id="Le2Ed6DJ84hzCDSRAri3-17" value="" style="endArrow=classic;startArrow=classic;html=1;rounded=0;exitX=-0.011;exitY=0.553;exitDx=0;exitDy=0;exitPerimeter=0;" edge="1" parent="1" source="Le2Ed6DJ84hzCDSRAri3-1">
          <mxGeometry width="50" height="50" relative="1" as="geometry">
            <mxPoint x="390" y="210" as="sourcePoint" />
            <mxPoint x="360" y="208" as="targetPoint" />
          </mxGeometry>
        </mxCell>
        <mxCell id="Le2Ed6DJ84hzCDSRAri3-25" value="llista&amp;nbsp;" style="edgeLabel;html=1;align=center;verticalAlign=middle;resizable=0;points=[];" vertex="1" connectable="0" parent="Le2Ed6DJ84hzCDSRAri3-17">
          <mxGeometry x="0.1188" relative="1" as="geometry">
            <mxPoint as="offset" />
          </mxGeometry>
        </mxCell>
        <mxCell id="Le2Ed6DJ84hzCDSRAri3-18" value="" style="endArrow=classic;startArrow=classic;html=1;rounded=0;exitX=-0.011;exitY=0.553;exitDx=0;exitDy=0;exitPerimeter=0;" edge="1" parent="1">
          <mxGeometry width="50" height="50" relative="1" as="geometry">
            <mxPoint x="129" y="196.5" as="sourcePoint" />
            <mxPoint x="80" y="193.5" as="targetPoint" />
            <Array as="points" />
          </mxGeometry>
        </mxCell>
        <mxCell id="Le2Ed6DJ84hzCDSRAri3-22" value="FILM" style="rounded=1;whiteSpace=wrap;html=1;fillColor=#e1d5e7;strokeColor=#9673a6;" vertex="1" parent="1">
          <mxGeometry x="260" y="330" width="60" height="30" as="geometry" />
        </mxCell>
        <mxCell id="Le2Ed6DJ84hzCDSRAri3-26" value="lista di film dalla api che riceverÃ  l&#39;app&amp;nbsp;" style="shape=note;whiteSpace=wrap;html=1;backgroundOutline=1;darkOpacity=0.05;" vertex="1" parent="1">
          <mxGeometry x="374" y="10" width="80" height="100" as="geometry" />
        </mxCell>
        <mxCell id="Le2Ed6DJ84hzCDSRAri3-28" value="" style="endArrow=classic;html=1;rounded=0;entryX=0.138;entryY=1.06;entryDx=0;entryDy=0;entryPerimeter=0;" edge="1" parent="1" target="Le2Ed6DJ84hzCDSRAri3-26">
          <mxGeometry width="50" height="50" relative="1" as="geometry">
            <mxPoint x="380" y="200" as="sourcePoint" />
            <mxPoint x="414" y="115" as="targetPoint" />
            <Array as="points">
              <mxPoint x="384" y="145" />
            </Array>
          </mxGeometry>
        </mxCell>
        <mxCell id="Le2Ed6DJ84hzCDSRAri3-31" value="" style="endArrow=classic;html=1;rounded=0;exitX=1;exitY=0;exitDx=0;exitDy=52.5;exitPerimeter=0;entryX=0;entryY=0.5;entryDx=0;entryDy=0;startArrow=classic;startFill=1;" edge="1" parent="1" source="Le2Ed6DJ84hzCDSRAri3-16" target="Le2Ed6DJ84hzCDSRAri3-4">
          <mxGeometry width="50" height="50" relative="1" as="geometry">
            <mxPoint x="130" y="160" as="sourcePoint" />
            <mxPoint x="180" y="110" as="targetPoint" />
            <Array as="points">
              <mxPoint x="100" y="140" />
            </Array>
          </mxGeometry>
        </mxCell>
        <mxCell id="Le2Ed6DJ84hzCDSRAri3-34" value="variabilet" style="edgeLabel;html=1;align=center;verticalAlign=middle;resizable=0;points=[];" vertex="1" connectable="0" parent="Le2Ed6DJ84hzCDSRAri3-31">
          <mxGeometry x="-0.1451" y="2" relative="1" as="geometry">
            <mxPoint as="offset" />
          </mxGeometry>
        </mxCell>
        <mxCell id="Le2Ed6DJ84hzCDSRAri3-33" value="llista&amp;nbsp;" style="edgeLabel;html=1;align=center;verticalAlign=middle;resizable=0;points=[];" vertex="1" connectable="0" parent="1">
          <mxGeometry x="100.00001184602081" y="189.9979613524437" as="geometry">
            <mxPoint x="4" y="9" as="offset" />
          </mxGeometry>
        </mxCell>
        <mxCell id="Le2Ed6DJ84hzCDSRAri3-35" value="props" style="rounded=1;whiteSpace=wrap;html=1;fillColor=#f8cecc;strokeColor=#b85450;" vertex="1" parent="1">
          <mxGeometry x="150" y="200" width="40" height="30" as="geometry" />
        </mxCell>
        <mxCell id="Le2Ed6DJ84hzCDSRAri3-36" value="props" style="rounded=1;whiteSpace=wrap;html=1;fillColor=#f8cecc;strokeColor=#b85450;" vertex="1" parent="1">
          <mxGeometry x="240" y="200" width="40" height="30" as="geometry" />
        </mxCell>
        <mxCell id="Le2Ed6DJ84hzCDSRAri3-37" value="props" style="rounded=1;whiteSpace=wrap;html=1;fillColor=#f8cecc;strokeColor=#b85450;" vertex="1" parent="1">
          <mxGeometry x="150" y="260" width="40" height="30" as="geometry" />
        </mxCell>
        <mxCell id="Le2Ed6DJ84hzCDSRAri3-38" value="props" style="rounded=1;whiteSpace=wrap;html=1;fillColor=#f8cecc;strokeColor=#b85450;" vertex="1" parent="1">
          <mxGeometry x="240" y="260" width="40" height="30" as="geometry" />
        </mxCell>
        <mxCell id="Le2Ed6DJ84hzCDSRAri3-41" style="edgeStyle=orthogonalEdgeStyle;rounded=0;orthogonalLoop=1;jettySize=auto;html=1;exitX=1;exitY=0;exitDx=0;exitDy=0;" edge="1" parent="1" source="Le2Ed6DJ84hzCDSRAri3-39" target="Le2Ed6DJ84hzCDSRAri3-40">
          <mxGeometry relative="1" as="geometry" />
        </mxCell>
        <mxCell id="Le2Ed6DJ84hzCDSRAri3-39" value="props" style="rounded=1;whiteSpace=wrap;html=1;fillColor=#f8cecc;strokeColor=#b85450;" vertex="1" parent="1">
          <mxGeometry x="150" y="310" width="40" height="30" as="geometry" />
        </mxCell>
        <mxCell id="Le2Ed6DJ84hzCDSRAri3-40" value="props" style="rounded=1;whiteSpace=wrap;html=1;fillColor=#f8cecc;strokeColor=#b85450;" vertex="1" parent="1">
          <mxGeometry x="240" y="310" width="40" height="30" as="geometry" />
        </mxCell>
      </root>
    </mxGraphModel>
  </diagram>
</mxfile>
